<svg xmlns="http://www.w3.org/2000/svg" version="1.1" viewBox="0 0 96 96"
     x="0" y="0" enable-background="transparent" ><path d="M40.874 10.126C18.853 10.126 1 27.978 1 50c0 22.021 17.853 39.874 39.874 39.874 22.022 0 39.874-17.853 39.874-39.874C80.748 27.978 62.896 10.126 40.874 10.126zM55.486 24.853c2.908-2.908 7.626-2.909 10.535 0s2.908 7.627 0 10.535c-2.91 2.91-7.627 2.91-10.535 0C52.576 32.479 52.576 27.763 55.486 24.853zM5.313 50.001c-0.001-4.115 3.334-7.451 7.447-7.45 4.116-0.001 7.452 3.335 7.449 7.449 0.002 4.114-3.334 7.449-7.449 7.449C8.647 57.45 5.312 54.114 5.313 50.001zM26.262 75.147c-2.908 2.908-7.625 2.908-10.532-0.001-2.911-2.909-2.911-7.626-0.003-10.534 2.91-2.91 7.628-2.91 10.535 0C29.172 67.521 29.172 72.237 26.262 75.147zM26.262 35.388c-2.908 2.91-7.625 2.91-10.535 0-2.909-2.908-2.909-7.625 0.001-10.533 2.909-2.91 7.626-2.91 10.534-0.002C29.172 27.763 29.172 32.479 26.262 35.388zM40.875 85.562c-4.116 0.001-7.451-3.334-7.451-7.447 0-4.115 3.335-7.451 7.449-7.449 4.114-0.002 7.45 3.334 7.449 7.449C48.324 82.228 44.988 85.562 40.875 85.562zM40.874 29.336c-4.114 0-7.45-3.335-7.45-7.45s3.335-7.45 7.45-7.45 7.45 3.335 7.45 7.45S44.988 29.336 40.874 29.336zM66.021 75.146c-2.91 2.91-7.627 2.91-10.535 0.002-2.91-2.91-2.91-7.627 0-10.535 2.908-2.91 7.625-2.91 10.535 0C68.93 67.521 68.93 72.237 66.021 75.146zM68.988 57.449c-4.115 0-7.451-3.335-7.449-7.449-0.001-4.114 3.334-7.449 7.449-7.45 4.113 0 7.449 3.336 7.449 7.449C76.438 54.114 73.102 57.449 68.988 57.449z" fill="#77d4fc" data-fill-palette-color="accent"></path>
    <path d="M98.25 88.312c0-0.863-0.699-1.562-1.562-1.562H63.102c-0.863 0-1.562 0.699-1.562 1.562l0 0c0 0.862 0.699 1.562 1.562 1.562h33.586C97.551 89.874 98.25 89.175 98.25 88.312L98.25 88.312z"
          fill="#77d4fc"></path></svg>