    <svg xmlns="http://www.w3.org/2000/svg" viewBox="0 0 395.52 31.055323553002072" height="31.055323553002072" width="395.52">
      <g id="logo">
        <svg viewBox="0 0 443.9865731159342 34.86080775006055" height="31.055323553002072" width="395.52">
          <g transform="matrix(1,0,0,1,48.46657311593426,4.817955340276098)">
                <svg viewBox="0 0 395.52 25.224897069508355" height="25.224897069508355" width="395.52" id="textblock">
                      <g transform="matrix(1,0,0,1,0,0)">
                        <svg width="395.52" viewBox="2.3499999046325684 -39 619.3099975585938 39.5"
                             height="25.224897069508355" data-palette-color="#010c80">
                          <path
                            d="M34.4-35.4L35.35-38.5 37.8-38.5 36.8-25.85 34.8-25.85Q33.75-30.45 30.73-33.1 27.7-35.75 23.4-35.75L23.4-35.75Q20.45-35.75 18.15-34.58 15.85-33.4 14.28-31.23 12.7-29.05 11.88-25.93 11.05-22.8 11.05-18.9L11.05-18.9Q11.05-11.15 14.23-6.98 17.4-2.8 23.6-2.8L23.6-2.8Q28.6-2.8 31.88-5.5 35.15-8.2 36.55-13.55L36.55-13.55 38.75-13.55 38.75 0 36.4 0 35.7-3.95Q30.2 0.5 22.35 0.5L22.35 0.5Q17.8 0.5 14.1-0.85 10.4-2.2 7.8-4.67 5.2-7.15 3.78-10.7 2.35-14.25 2.35-18.6L2.35-18.6Q2.35-23.15 3.85-26.9 5.35-30.65 8.08-33.35 10.8-36.05 14.58-37.52 18.35-39 22.95-39L22.95-39Q26-39 28.65-38.15 31.3-37.3 34.4-35.4L34.4-35.4ZM60.8-2L60.8 0 42.95 0 42.95-2Q44.65-2.05 45.67-2.33 46.7-2.6 47.25-3.35 47.8-4.1 48-5.48 48.2-6.85 48.2-9.2L48.2-9.2 48.2-29.3Q48.2-31.4 48.02-32.77 47.85-34.15 47.35-34.95 46.85-35.75 45.92-36.08 45-36.4 43.45-36.5L43.45-36.5 43.45-38.5 60.3-38.5 60.3-36.5Q58.75-36.4 57.82-36.08 56.9-35.75 56.4-34.95 55.9-34.15 55.72-32.77 55.55-31.4 55.55-29.3L55.55-29.3 55.55-9.2Q55.55-6.85 55.72-5.48 55.9-4.1 56.47-3.35 57.05-2.6 58.07-2.33 59.1-2.05 60.8-2L60.8-2ZM102.8 0.5L96.1 0.5 73.95-31.05 73.75-31.05 73.75-9.55Q73.75-7.05 73.92-5.6 74.1-4.15 74.67-3.35 75.25-2.55 76.27-2.3 77.3-2.05 78.95-2L78.95-2 78.95 0 64.1 0 64.1-2Q65.95-2.05 67.07-2.33 68.2-2.6 68.82-3.35 69.45-4.1 69.65-5.48 69.85-6.85 69.85-9.2L69.85-9.2 69.85-29.3Q69.85-31.4 69.65-32.77 69.45-34.15 68.9-34.95 68.35-35.75 67.32-36.08 66.3-36.4 64.6-36.5L64.6-36.5 64.6-38.5 78.55-38.5 98.7-9.6 98.9-9.6 98.9-28.95Q98.9-31.4 98.72-32.88 98.55-34.35 97.97-35.15 97.4-35.95 96.37-36.2 95.35-36.45 93.7-36.5L93.7-36.5 93.7-38.5 108.55-38.5 108.55-36.5Q106.7-36.45 105.57-36.18 104.45-35.9 103.82-35.15 103.2-34.4 103-33 102.8-31.6 102.8-29.3L102.8-29.3 102.8 0.5ZM123.94-34L123.94-21.3Q127.14-21.3 129.09-21.5 131.04-21.7 132.12-22.33 133.19-22.95 133.64-24.15 134.09-25.35 134.34-27.4L134.34-27.4 136.19-27.4 136.19-12.75 134.34-12.75Q134.04-14.75 133.54-15.95 133.04-17.15 131.94-17.78 130.84-18.4 128.97-18.57 127.09-18.75 123.94-18.75L123.94-18.75 123.94-8.45Q123.94-6.85 124.37-5.75 124.79-4.65 125.79-3.98 126.79-3.3 128.44-3.03 130.09-2.75 132.49-2.75L132.49-2.75Q135.34-2.75 137.32-3.15 139.29-3.55 140.59-4.55 141.89-5.55 142.69-7.23 143.49-8.9 144.04-11.45L144.04-11.45 146.04-11.45 145.24 0 111.34 0 111.34-2Q112.99-2.05 114.04-2.3 115.09-2.55 115.64-3.15 116.19-3.75 116.39-4.85 116.59-5.95 116.59-7.7L116.59-7.7 116.59-30.8Q116.59-32.55 116.42-33.63 116.24-34.7 115.74-35.33 115.24-35.95 114.32-36.18 113.39-36.4 111.89-36.5L111.89-36.5 111.89-38.5 143.49-38.5 143.84-28.7 141.69-28.7Q141.39-30.8 140.74-32.18 140.09-33.55 138.94-34.38 137.79-35.2 135.97-35.52 134.14-35.85 131.49-35.85L131.49-35.85 125.84-35.85Q124.54-35.85 124.24-35.52 123.94-35.2 123.94-34L123.94-34ZM176.64-9.35L176.84-9.35 188.39-38.5 202.99-38.5 202.99-36.5Q201.34-36.5 200.32-36.18 199.29-35.85 198.74-35 198.19-34.15 198.02-32.68 197.84-31.2 197.84-28.95L197.84-28.95 197.84-9.55Q197.84-7.05 198.04-5.6 198.24-4.15 198.84-3.35 199.44-2.55 200.57-2.3 201.69-2.05 203.54-2L203.54-2 203.54 0 184.74 0 184.74-2Q186.59-2.05 187.72-2.33 188.84-2.6 189.47-3.35 190.09-4.1 190.29-5.48 190.49-6.85 190.49-9.2L190.49-9.2 190.49-32.6 190.24-32.6 176.79 0.5 173.09 0.5 159.19-32.6 158.99-32.6 158.99-9.55Q158.99-7.05 159.19-5.6 159.39-4.15 159.99-3.35 160.59-2.55 161.72-2.3 162.84-2.05 164.69-2L164.69-2 164.69 0 149.29 0 149.29-2Q151.14-2.05 152.29-2.33 153.44-2.6 154.07-3.35 154.69-4.1 154.89-5.48 155.09-6.85 155.09-9.2L155.09-9.2 155.09-29.3Q155.09-31.4 154.89-32.8 154.69-34.2 154.14-35.02 153.59-35.85 152.57-36.18 151.54-36.5 149.84-36.5L149.84-36.5 149.84-38.5 164.99-38.5 176.64-9.35ZM231.24-8.65L230.09-11.65 215.94-11.65Q213.59-6.35 213.59-4.3L213.59-4.3Q213.59-2.8 214.71-2.4 215.84-2 218.09-2L218.09-2 218.09 0 204.39 0 204.39-2Q205.59-2.15 206.46-2.4 207.34-2.65 208.01-3.1 208.69-3.55 209.19-4.28 209.69-5 210.14-6.05L210.14-6.05 223.29-39 226.99-39 238.94-9.8Q239.99-7.25 240.71-5.8 241.44-4.35 242.26-3.58 243.09-2.8 244.16-2.5 245.24-2.2 246.94-2.05L246.94-2.05 246.94 0 228.04 0 228.04-2.05Q230.44-2.15 231.49-2.55 232.54-2.95 232.54-4.15L232.54-4.15Q232.54-4.85 232.19-5.95 231.84-7.05 231.24-8.65L231.24-8.65ZM223.04-29.8L217.09-14.65 228.99-14.65 223.24-29.8 223.04-29.8ZM291.08-35.4L292.03-38.5 294.48-38.5 293.48-25.85 291.48-25.85Q290.43-30.45 287.41-33.1 284.38-35.75 280.08-35.75L280.08-35.75Q277.13-35.75 274.83-34.58 272.53-33.4 270.96-31.23 269.38-29.05 268.56-25.93 267.73-22.8 267.73-18.9L267.73-18.9Q267.73-11.15 270.91-6.98 274.08-2.8 280.28-2.8L280.28-2.8Q285.28-2.8 288.56-5.5 291.83-8.2 293.23-13.55L293.23-13.55 295.43-13.55 295.43 0 293.08 0 292.38-3.95Q286.88 0.5 279.03 0.5L279.03 0.5Q274.48 0.5 270.78-0.85 267.08-2.2 264.48-4.67 261.88-7.15 260.46-10.7 259.03-14.25 259.03-18.6L259.03-18.6Q259.03-23.15 260.53-26.9 262.03-30.65 264.76-33.35 267.48-36.05 271.26-37.52 275.03-39 279.63-39L279.63-39Q282.68-39 285.33-38.15 287.98-37.3 291.08-35.4L291.08-35.4ZM324.03-8.65L322.88-11.65 308.73-11.65Q306.38-6.35 306.38-4.3L306.38-4.3Q306.38-2.8 307.5-2.4 308.63-2 310.88-2L310.88-2 310.88 0 297.18 0 297.18-2Q298.38-2.15 299.25-2.4 300.13-2.65 300.81-3.1 301.48-3.55 301.98-4.28 302.48-5 302.93-6.05L302.93-6.05 316.08-39 319.78-39 331.73-9.8Q332.78-7.25 333.5-5.8 334.23-4.35 335.06-3.58 335.88-2.8 336.95-2.5 338.03-2.2 339.73-2.05L339.73-2.05 339.73 0 320.83 0 320.83-2.05Q323.23-2.15 324.28-2.55 325.33-2.95 325.33-4.15L325.33-4.15Q325.33-4.85 324.98-5.95 324.63-7.05 324.03-8.65L324.03-8.65ZM315.83-29.8L309.88-14.65 321.78-14.65 316.03-29.8 315.83-29.8ZM374.78-38.5L375.28-27.5 373.13-27.5Q372.98-29.95 372.4-31.58 371.83-33.2 370.78-34.18 369.73-35.15 368.23-35.52 366.73-35.9 364.73-35.9L364.73-35.9Q362.78-35.9 361.6-35.83 360.43-35.75 359.8-35.58 359.18-35.4 358.98-35.1 358.78-34.8 358.78-34.35L358.78-34.35 358.78-8.15Q358.78-6.55 359-5.4 359.23-4.25 359.93-3.53 360.63-2.8 361.98-2.43 363.33-2.05 365.53-2L365.53-2 365.53 0 344.58 0 344.58-2Q346.83-2.05 348.18-2.43 349.53-2.8 350.25-3.53 350.98-4.25 351.2-5.4 351.43-6.55 351.43-8.15L351.43-8.15 351.43-34.35Q351.43-34.8 351.25-35.1 351.08-35.4 350.53-35.58 349.98-35.75 348.95-35.83 347.93-35.9 346.28-35.9L346.28-35.9Q344.48-35.9 342.83-35.73 341.18-35.55 339.93-34.73 338.68-33.9 337.9-32.23 337.13-30.55 337.08-27.5L337.08-27.5 335.13-27.5 335.63-38.5 374.78-38.5ZM398.27-8.65L397.13-11.65 382.97-11.65Q380.63-6.35 380.63-4.3L380.63-4.3Q380.63-2.8 381.75-2.4 382.88-2 385.13-2L385.13-2 385.13 0 371.43 0 371.43-2Q372.63-2.15 373.5-2.4 374.38-2.65 375.05-3.1 375.72-3.55 376.22-4.28 376.72-5 377.18-6.05L377.18-6.05 390.32-39 394.02-39 405.97-9.8Q407.02-7.25 407.75-5.8 408.47-4.35 409.3-3.58 410.13-2.8 411.2-2.5 412.27-2.2 413.98-2.05L413.98-2.05 413.98 0 395.07 0 395.07-2.05Q397.47-2.15 398.52-2.55 399.57-2.95 399.57-4.15L399.57-4.15Q399.57-4.85 399.22-5.95 398.88-7.05 398.27-8.65L398.27-8.65ZM390.07-29.8L384.13-14.65 396.02-14.65 390.27-29.8 390.07-29.8ZM449.52-11.35L448.72 0 414.27 0 414.27-2Q415.92-2.05 416.97-2.3 418.02-2.55 418.57-3.15 419.12-3.75 419.32-4.85 419.52-5.95 419.52-7.7L419.52-7.7 419.52-30.8Q419.52-32.55 419.35-33.63 419.17-34.7 418.67-35.33 418.17-35.95 417.25-36.18 416.32-36.4 414.82-36.5L414.82-36.5 414.82-38.5 432.07-38.5 432.07-36.5Q430.37-36.45 429.35-36.2 428.32-35.95 427.77-35.3 427.22-34.65 427.05-33.5 426.87-32.35 426.87-30.45L426.87-30.45 426.87-9.5Q426.87-7.4 427.3-6.08 427.72-4.75 428.77-4.03 429.82-3.3 431.57-3.03 433.32-2.75 435.92-2.75L435.92-2.75Q438.82-2.75 440.77-3.1 442.72-3.45 444.05-4.42 445.37-5.4 446.17-7.05 446.97-8.7 447.52-11.35L447.52-11.35 449.52-11.35ZM473.87-39L473.87-39Q478.37-39 482.27-37.45 486.17-35.9 489.04-33.2 491.92-30.5 493.57-26.85 495.22-23.2 495.22-18.95L495.22-18.95Q495.22-14.9 493.54-11.35 491.87-7.8 489-5.18 486.12-2.55 482.22-1.03 478.32 0.5 473.87 0.5L473.87 0.5Q469.42 0.5 465.52-1.03 461.62-2.55 458.72-5.18 455.82-7.8 454.17-11.35 452.52-14.9 452.52-18.95L452.52-18.95Q452.52-23.2 454.17-26.85 455.82-30.5 458.69-33.2 461.57-35.9 465.47-37.45 469.37-39 473.87-39ZM473.87-2.75L473.87-2.75Q476.77-2.75 479.12-3.88 481.47-5 483.12-7.08 484.77-9.15 485.64-12.13 486.52-15.1 486.52-18.8L486.52-18.8Q486.52-22.7 485.64-25.83 484.77-28.95 483.12-31.18 481.47-33.4 479.12-34.58 476.77-35.75 473.87-35.75L473.87-35.75Q470.92-35.75 468.59-34.58 466.27-33.4 464.62-31.18 462.97-28.95 462.09-25.83 461.22-22.7 461.22-18.8L461.22-18.8Q461.22-15.1 462.09-12.13 462.97-9.15 464.62-7.08 466.27-5 468.59-3.88 470.92-2.75 473.87-2.75ZM519.32 0.5L519.32 0.5Q514.82 0.5 511.19-0.83 507.57-2.15 505.04-4.63 502.52-7.1 501.14-10.63 499.77-14.15 499.77-18.55L499.77-18.55Q499.77-23.1 501.24-26.88 502.72-30.65 505.37-33.35 508.02-36.05 511.72-37.52 515.42-39 519.92-39L519.92-39Q523.02-39 525.82-38.15 528.62-37.3 531.87-35.4L531.87-35.4 532.82-38.5 534.62-38.5 534.62-25.85 532.12-25.85Q531.12-30.55 528.09-33.15 525.07-35.75 520.52-35.75L520.52-35.75Q514.77-35.75 511.59-31.33 508.42-26.9 508.42-18.95L508.42-18.95Q508.42-11.15 511.52-7 514.62-2.85 520.52-2.85L520.52-2.85Q524.77-2.85 527.14-5.03 529.52-7.2 529.52-11.05L529.52-11.05Q529.52-13.35 528.32-14.43 527.12-15.5 524.27-15.75L524.27-15.75 524.27-17.75 540.47-17.75 540.47-15.75Q538.02-15.75 537.07-14.68 536.12-13.6 536.12-10.8L536.12-10.8 536.12-4.15Q535.02-4.15 534.27-4.08 533.52-4 532.79-3.78 532.07-3.55 531.17-3.05 530.27-2.55 528.92-1.75L528.92-1.75Q525.07 0.5 519.32 0.5ZM579.06-26.1L579.06-15.5Q579.06-11.25 578.14-8.22 577.21-5.2 575.26-3.25 573.31-1.3 570.24-0.4 567.16 0.5 562.86 0.5L562.86 0.5Q554.81 0.5 551.09-2.88 547.36-6.25 547.36-13.65L547.36-13.65 547.36-27.35Q547.36-29.3 547.31-30.63 547.26-31.95 547.16-32.85 547.06-33.75 546.89-34.33 546.71-34.9 546.46-35.3L546.46-35.3Q546.01-36 545.16-36.25 544.31-36.5 542.56-36.5L542.56-36.5 542.56-38.5 560.51-38.5 560.51-36.5Q558.41-36.5 557.41-36.27 556.41-36.05 555.86-35.4L555.86-35.4Q555.51-35 555.29-34.43 555.06-33.85 554.94-32.93 554.81-32 554.76-30.65 554.71-29.3 554.71-27.35L554.71-27.35 554.71-14.25Q554.71-8.55 557.14-5.83 559.56-3.1 564.61-3.1L564.61-3.1Q574.91-3.1 574.91-14.55L574.91-14.55 574.91-26.1Q574.91-28.2 574.84-29.7 574.76-31.2 574.59-32.25 574.41-33.3 574.14-34 573.86-34.7 573.46-35.15L573.46-35.15Q572.76-35.85 571.66-36.18 570.56-36.5 568.61-36.5L568.61-36.5 568.61-38.5 584.81-38.5 584.81-36.5Q582.96-36.5 581.96-36.23 580.96-35.95 580.41-35.25L580.41-35.25Q580.01-34.8 579.76-34.08 579.51-33.35 579.36-32.27 579.21-31.2 579.14-29.7 579.06-28.2 579.06-26.1L579.06-26.1ZM599.56-34L599.56-21.3Q602.76-21.3 604.71-21.5 606.66-21.7 607.74-22.33 608.81-22.95 609.26-24.15 609.71-25.35 609.96-27.4L609.96-27.4 611.81-27.4 611.81-12.75 609.96-12.75Q609.66-14.75 609.16-15.95 608.66-17.15 607.56-17.78 606.46-18.4 604.59-18.57 602.71-18.75 599.56-18.75L599.56-18.75 599.56-8.45Q599.56-6.85 599.99-5.75 600.41-4.65 601.41-3.98 602.41-3.3 604.06-3.03 605.71-2.75 608.11-2.75L608.11-2.75Q610.96-2.75 612.94-3.15 614.91-3.55 616.21-4.55 617.51-5.55 618.31-7.23 619.11-8.9 619.66-11.45L619.66-11.45 621.66-11.45 620.86 0 586.96 0 586.96-2Q588.61-2.05 589.66-2.3 590.71-2.55 591.26-3.15 591.81-3.75 592.01-4.85 592.21-5.95 592.21-7.7L592.21-7.7 592.21-30.8Q592.21-32.55 592.04-33.63 591.86-34.7 591.36-35.33 590.86-35.95 589.94-36.18 589.01-36.4 587.51-36.5L587.51-36.5 587.51-38.5 619.11-38.5 619.46-28.7 617.31-28.7Q617.01-30.8 616.36-32.18 615.71-33.55 614.56-34.38 613.41-35.2 611.59-35.52 609.76-35.85 607.11-35.85L607.11-35.85 601.46-35.85Q600.16-35.85 599.86-35.52 599.56-35.2 599.56-34L599.56-34Z"
                            opacity="1" transform="matrix(1,0,0,1,0,0)" fill="#010c80" class="undefined-text-0"
                            data-fill-palette-color="primary" id="text-0"></path>
                        </svg>
                  </g>
                </svg>
          </g>
          <g>
            <svg viewBox="0 0 42.51158031535301 34.86080775006055" height="34.86080775006055" width="42.51158031535301">
              <g>
                <svg xmlns="http://www.w3.org/2000/svg" version="1.1" x="0" y="0"
                     viewBox="1 10.12600040435791 97.25 79.74800109863281" enable-background="new 0 0 100 100"
                     xml:space="preserve" height="34.86080775006055" width="42.51158031535301" class="icon-icon-0"
                     data-fill-palette-color="accent" id="icon-0"><path d="M40.874 10.126C18.853 10.126 1 27.978 1 50c0 22.021 17.853 39.874 39.874 39.874 22.022 0 39.874-17.853 39.874-39.874C80.748 27.978 62.896 10.126 40.874 10.126zM55.486 24.853c2.908-2.908 7.626-2.909 10.535 0s2.908 7.627 0 10.535c-2.91 2.91-7.627 2.91-10.535 0C52.576 32.479 52.576 27.763 55.486 24.853zM5.313 50.001c-0.001-4.115 3.334-7.451 7.447-7.45 4.116-0.001 7.452 3.335 7.449 7.449 0.002 4.114-3.334 7.449-7.449 7.449C8.647 57.45 5.312 54.114 5.313 50.001zM26.262 75.147c-2.908 2.908-7.625 2.908-10.532-0.001-2.911-2.909-2.911-7.626-0.003-10.534 2.91-2.91 7.628-2.91 10.535 0C29.172 67.521 29.172 72.237 26.262 75.147zM26.262 35.388c-2.908 2.91-7.625 2.91-10.535 0-2.909-2.908-2.909-7.625 0.001-10.533 2.909-2.91 7.626-2.91 10.534-0.002C29.172 27.763 29.172 32.479 26.262 35.388zM40.875 85.562c-4.116 0.001-7.451-3.334-7.451-7.447 0-4.115 3.335-7.451 7.449-7.449 4.114-0.002 7.45 3.334 7.449 7.449C48.324 82.228 44.988 85.562 40.875 85.562zM40.874 29.336c-4.114 0-7.45-3.335-7.45-7.45s3.335-7.45 7.45-7.45 7.45 3.335 7.45 7.45S44.988 29.336 40.874 29.336zM66.021 75.146c-2.91 2.91-7.627 2.91-10.535 0.002-2.91-2.91-2.91-7.627 0-10.535 2.908-2.91 7.625-2.91 10.535 0C68.93 67.521 68.93 72.237 66.021 75.146zM68.988 57.449c-4.115 0-7.451-3.335-7.449-7.449-0.001-4.114 3.334-7.449 7.449-7.45 4.113 0 7.449 3.336 7.449 7.449C76.438 54.114 73.102 57.449 68.988 57.449z" fill="#77d4fc" data-fill-palette-color="accent"></path>
                  <path
                    d="M98.25 88.312c0-0.863-0.699-1.562-1.562-1.562H63.102c-0.863 0-1.562 0.699-1.562 1.562l0 0c0 0.862 0.699 1.562 1.562 1.562h33.586C97.551 89.874 98.25 89.175 98.25 88.312L98.25 88.312z"
                    fill="#77d4fc" data-fill-palette-color="accent"></path></svg>
              </g>
            </svg>
          </g>
        </svg>
      </g>
    </svg>
