<svg
  class="logo"
  viewBox="0 0 340 93"
  preserveAspectRatio="xMidYMid meet"
  color-interpolation-filters="sRGB"
  xmlns="http://www.w3.org/2000/svg">
  <g
    class="logo--fill"
        transform="matrix(1.8794887,0,0,1.8794887,2.1467579,1.0093981)">
    <svg
      x="0"
      y="0"
      width="37.046955"
      height="40.800163"
      filtersec="colorsb5828770157">
      <svg
        viewBox="-0.61019176 -0.005000852 67.610191 74.459999"
        width="100%"
        height="100%">
        <path
          d="M 37.23,74.45 A 37.23,37.23 0 1 1 37.23,0 L 67,59.56 A 37.19,37.19 0 0 1 37.23,74.45 Z"
          fill="#bce2e3"
          opacity="0.8"/>
        <path
          d="m 37.23,0 a 37.23,37.23 0 1 0 0,74.45 L 67,14.89 A 37.19,37.19 0 0 0 37.23,0 Z"
          fill="#58c1c0"
          opacity="0.8"/>
      </svg>
    </svg>
    <g
      transform="translate(41,2.2010107)">
      <g
        class="logo--fill"
      >
        <path
          d="M 11.94,-25.63 V 0 H 3.1 v -25.63 z m -9.07,-6.38 v 0 q 0,-1.99 1.11,-2.96 1.11,-0.98 3.58,-0.98 v 0 q 2.46,0 3.59,1 1.13,0.99 1.13,2.94 v 0 q 0,3.89 -4.72,3.89 v 0 q -4.69,0 -4.69,-3.89 z"
          transform="translate(-2.8729421,35.945708)"
        />
      </g>
    </g>
    <g
      transform="translate(54,2.2010107)"
    >
      <g
        class="logo--fill"
      >
        <path
          d="m 28.07,0 h -8.84 v -13.98 q 0,-2.56 -0.74,-3.86 -0.73,-1.3 -2.36,-1.3 v 0 q -2.24,0 -3.24,1.79 -0.99,1.79 -0.99,6.13 v 0 V 0 H 3.05 v -25.63 h 6.68 l 1.11,3.17 h 0.52 q 1.13,-1.81 3.13,-2.72 2,-0.9 4.6,-0.9 v 0 q 4.26,0 6.62,2.46 2.36,2.47 2.36,6.95 v 0 z"
          transform="translate(-3.0539148,35.945708)"
        />
      </g>
    </g>
    <g
      transform="translate(83,2.2010107)"
    >
      <g
        class="logo--fill"
      >
        <path
          d="m 15.43,0.45 v 0 q -6.4,0 -9.94,-3.4 -3.54,-3.41 -3.54,-9.7 v 0 q 0,-6.49 3.28,-9.96 3.28,-3.47 9.36,-3.47 v 0 q 5.79,0 8.95,3.02 3.15,3.02 3.15,8.7 v 0 3.93 H 10.88 q 0.09,2.15 1.57,3.37 1.48,1.22 4.04,1.22 v 0 q 2.33,0 4.29,-0.44 1.95,-0.44 4.24,-1.5 v 0 6.35 q -2.08,1.07 -4.3,1.48 -2.22,0.4 -5.29,0.4 z m -0.52,-20.52 v 0 q -1.56,0 -2.62,0.99 -1.05,0.98 -1.23,3.09 v 0 h 7.6 q -0.04,-1.86 -1.05,-2.97 -1.01,-1.11 -2.7,-1.11 z"
          transform="translate(-1.9454568,35.945708)"
        />
      </g>
    </g>
    <g
      transform="translate(111,2.2010107)">
      <g
        class="logo--fill"
      >
        <path
          d="m 43.37,0 h -8.85 v -13.93 q 0,-2.61 -0.71,-3.91 -0.71,-1.3 -2.25,-1.3 v 0 q -2.04,0 -2.99,1.74 -0.95,1.75 -0.95,5.46 v 0 V 0 h -8.87 v -13.93 q 0,-2.61 -0.68,-3.91 -0.67,-1.3 -2.19,-1.3 v 0 q -2.08,0 -3.03,1.86 -0.95,1.85 -0.95,6.06 v 0 V 0 H 3.05 v -25.63 h 6.68 l 1.11,3.17 h 0.52 q 1.01,-1.77 2.95,-2.7 1.93,-0.92 4.4,-0.92 v 0 q 5.54,0 7.78,3.37 v 0 h 0.7 q 1.09,-1.59 3.02,-2.48 1.94,-0.89 4.27,-0.89 v 0 q 4.54,0 6.71,2.33 2.18,2.33 2.18,7.08 v 0 z"
          transform="translate(-3.0539148,35.945708)"
        />
      </g>
    </g>
    <g
      transform="translate(155,2.2010107)"
    >
      <g
        class="logo--fill"
      >
        <path
          d="m 25.9,0 h -6.13 l -1.7,-3.39 h -0.18 q -1.78,2.21 -3.64,3.03 -1.85,0.81 -4.79,0.81 v 0 q -3.62,0 -5.7,-2.17 -2.09,-2.17 -2.09,-6.11 v 0 q 0,-4.09 2.85,-6.09 2.85,-2.01 8.26,-2.25 v 0 l 4.28,-0.14 v -0.36 q 0,-3.17 -3.13,-3.17 v 0 q -2.8,0 -7.12,1.9 v 0 l -2.56,-5.84 q 4.48,-2.3 11.31,-2.3 v 0 q 4.94,0 7.64,2.44 2.7,2.44 2.7,6.83 v 0 z M 13.21,-5.79 v 0 q 1.61,0 2.75,-1.02 1.14,-1.02 1.14,-2.65 v 0 -1.99 l -2.03,0.09 q -4.37,0.16 -4.37,3.22 v 0 q 0,2.35 2.51,2.35 z"
          transform="translate(-1.6739977,35.945708)"
        />
      </g>
    </g>
  </g>
  <g
    class="logo--fill"
    transform="matrix(1.8794887,0,0,1.8794887,12.696334,77.095022)"
  >
    <rect
      x="0"
      height="1"
      y="3.5800004"
      width="52.047997"
    />
    <rect
      height="1"
      y="3.5800004"
      width="52.047997"
      x="117.178"
    />
    <g
      transform="translate(55.047998)"
    >
      <g
      >
        <path
          d="m 0.62,-3.94 c 0,0.64 0.09,1.22 0.26,1.73 0.17,0.5 0.41,0.93 0.72,1.28 0.31,0.35 0.67,0.61 1.09,0.8 0.42,0.18 0.88,0.27 1.38,0.27 0.5,0 0.95,-0.1 1.34,-0.3 C 5.8,-0.36 6.16,-0.64 6.47,-1 L 5.9,-1.61 c -0.25,0.28 -0.52,0.5 -0.81,0.65 -0.28,0.15 -0.61,0.23 -1,0.23 -0.37,0 -0.71,-0.08 -1.01,-0.23 C 2.78,-1.11 2.52,-1.33 2.32,-1.61 2.11,-1.89 1.95,-2.23 1.83,-2.62 1.71,-3.02 1.66,-3.46 1.66,-3.96 c 0,-0.49 0.06,-0.93 0.18,-1.32 0.12,-0.39 0.28,-0.73 0.5,-1 0.22,-0.28 0.48,-0.49 0.78,-0.64 0.3,-0.15 0.64,-0.22 1.02,-0.22 0.34,0 0.63,0.07 0.88,0.2 0.25,0.13 0.48,0.31 0.69,0.53 L 6.28,-7.04 C 6.04,-7.3 5.75,-7.53 5.39,-7.72 c -0.36,-0.2 -0.78,-0.3 -1.26,-0.3 -0.51,0 -0.97,0.1 -1.4,0.29 -0.43,0.18 -0.8,0.45 -1.11,0.81 -0.31,0.35 -0.56,0.78 -0.73,1.28 -0.18,0.5 -0.27,1.07 -0.27,1.7 z M 11.28,-3.2 H 8.92 L 9.29,-4.4 C 9.43,-4.84 9.57,-5.28 9.7,-5.72 9.82,-6.15 9.95,-6.6 10.07,-7.06 h 0.05 c 0.12,0.46 0.25,0.91 0.38,1.34 0.13,0.44 0.26,0.88 0.41,1.32 z m 0.25,0.8 0.75,2.4 h 1.06 L 10.68,-7.87 H 9.55 L 6.89,0 h 1.02 l 0.75,-2.4 z m 4.08,-4.63 V 0 h 1.01 V -7.03 H 19 v -0.84 h -5.76 v 0.84 z m 7.67,3.83 h -2.36 l 0.37,-1.2 c 0.14,-0.44 0.28,-0.88 0.41,-1.32 0.12,-0.43 0.25,-0.88 0.37,-1.34 h 0.05 c 0.12,0.46 0.25,0.91 0.38,1.34 0.13,0.44 0.26,0.88 0.41,1.32 z m 0.25,0.8 0.75,2.4 h 1.06 L 22.68,-7.87 H 21.55 L 18.89,0 h 1.02 l 0.75,-2.4 z m 2.93,-5.47 V 0 h 4.44 v -0.85 h -3.44 v -7.02 z m 8.42,8.01 c 0.5,0 0.95,-0.09 1.37,-0.28 0.41,-0.2 0.76,-0.47 1.06,-0.83 0.3,-0.35 0.54,-0.78 0.7,-1.29 0.16,-0.51 0.25,-1.08 0.25,-1.71 0,-0.63 -0.09,-1.19 -0.25,-1.69 -0.16,-0.5 -0.4,-0.92 -0.7,-1.27 -0.3,-0.35 -0.65,-0.62 -1.06,-0.8 -0.42,-0.19 -0.87,-0.29 -1.37,-0.29 -0.49,0 -0.95,0.1 -1.36,0.28 -0.41,0.18 -0.76,0.45 -1.06,0.8 -0.3,0.35 -0.53,0.77 -0.69,1.27 -0.16,0.5 -0.25,1.07 -0.25,1.7 0,0.63 0.09,1.2 0.25,1.71 0.16,0.51 0.39,0.94 0.69,1.29 0.3,0.36 0.65,0.63 1.06,0.83 0.41,0.19 0.87,0.28 1.36,0.28 z m 0,-0.87 c -0.35,0 -0.67,-0.08 -0.95,-0.23 -0.28,-0.15 -0.53,-0.37 -0.73,-0.65 -0.21,-0.29 -0.36,-0.63 -0.48,-1.02 -0.11,-0.4 -0.16,-0.85 -0.16,-1.34 0,-0.49 0.05,-0.93 0.16,-1.32 0.12,-0.39 0.27,-0.73 0.48,-1 0.2,-0.27 0.45,-0.48 0.73,-0.63 0.28,-0.15 0.6,-0.22 0.95,-0.22 0.36,0 0.67,0.07 0.96,0.22 0.28,0.15 0.53,0.36 0.73,0.63 0.2,0.27 0.36,0.61 0.47,1 0.12,0.39 0.17,0.83 0.17,1.32 0,0.49 -0.05,0.94 -0.17,1.34 -0.11,0.39 -0.27,0.73 -0.47,1.02 -0.2,0.28 -0.45,0.5 -0.73,0.65 -0.29,0.15 -0.6,0.23 -0.96,0.23 z m 4.61,-3.21 c 0,0.64 0.09,1.22 0.27,1.73 0.17,0.5 0.42,0.93 0.73,1.28 0.31,0.35 0.68,0.61 1.11,0.8 0.44,0.18 0.91,0.27 1.43,0.27 0.53,0 1,-0.08 1.42,-0.25 0.42,-0.18 0.76,-0.39 1.02,-0.66 v -3.31 h -2.58 v 0.83 h 1.67 v 2.05 c -0.16,0.14 -0.37,0.26 -0.62,0.34 -0.25,0.09 -0.52,0.13 -0.8,0.13 -0.42,0 -0.8,-0.08 -1.12,-0.23 -0.33,-0.15 -0.6,-0.37 -0.82,-0.65 -0.22,-0.28 -0.39,-0.62 -0.5,-1.01 -0.12,-0.4 -0.18,-0.84 -0.18,-1.34 0,-0.49 0.07,-0.93 0.19,-1.32 0.12,-0.39 0.3,-0.73 0.52,-1 0.23,-0.28 0.5,-0.49 0.82,-0.64 0.32,-0.15 0.68,-0.22 1.08,-0.22 0.4,0 0.73,0.07 0.99,0.21 0.26,0.14 0.49,0.31 0.69,0.52 l 0.56,-0.63 c -0.23,-0.24 -0.53,-0.47 -0.89,-0.67 -0.37,-0.2 -0.82,-0.31 -1.36,-0.31 -0.53,0 -1.02,0.1 -1.46,0.29 -0.44,0.18 -0.82,0.45 -1.14,0.81 -0.33,0.35 -0.58,0.78 -0.76,1.28 -0.18,0.5 -0.27,1.07 -0.27,1.7 z m 7.83,-3.93 v 4.62 c 0,0.63 0.07,1.16 0.21,1.59 0.15,0.44 0.34,0.79 0.6,1.05 0.25,0.27 0.55,0.46 0.9,0.58 0.34,0.12 0.72,0.17 1.12,0.17 0.4,0 0.77,-0.05 1.11,-0.17 0.35,-0.12 0.65,-0.31 0.9,-0.58 0.25,-0.26 0.45,-0.61 0.59,-1.05 0.15,-0.43 0.22,-0.96 0.22,-1.59 v -4.62 h -0.96 v 4.64 c 0,0.47 -0.05,0.87 -0.15,1.19 -0.09,0.32 -0.22,0.58 -0.39,0.77 -0.17,0.19 -0.37,0.33 -0.59,0.41 -0.22,0.09 -0.47,0.13 -0.73,0.13 -0.26,0 -0.5,-0.04 -0.72,-0.13 -0.23,-0.08 -0.42,-0.22 -0.58,-0.41 -0.17,-0.19 -0.3,-0.45 -0.39,-0.77 -0.1,-0.32 -0.15,-0.72 -0.15,-1.19 v -4.64 z m 7.77,0 V 0 h 4.66 v -0.85 h -3.66 v -2.86 h 2.99 v -0.85 h -2.99 v -2.47 h 3.54 v -0.84 z"
          transform="translate(-0.624,8.016)"
        />
      </g>
    </g>
  </g>
</svg>
