<?xml version="1.0" standalone="no"?>
<!DOCTYPE svg PUBLIC "-//W3C//DTD SVG 20010904//EN"
 "http://www.w3.org/TR/2001/REC-SVG-20010904/DTD/svg10.dtd">
<svg version="1.0" xmlns="http://www.w3.org/2000/svg"
 width="700.000000pt" height="700.000000pt" viewBox="0 0 700.000000 700.000000"
 preserveAspectRatio="xMidYMid meet">
<metadata>
Created by potrace 1.14, written by Peter Selinger 2001-2017
</metadata>
<g transform="translate(0.000000,700.000000) scale(0.100000,-0.100000)"
fill="#000000" stroke="none">
<path d="M2769 6256 c-2 -2 -38 -7 -79 -10 -280 -26 -593 -106 -859 -220 -829
-358 -1457 -1096 -1670 -1966 -24 -98 -36 -156 -66 -336 -29 -178 -25 -567 10
-799 133 -887 680 -1679 1460 -2111 179 -99 459 -217 595 -250 8 -2 49 -12 90
-24 88 -23 252 -56 330 -65 30 -3 66 -8 80 -10 103 -16 405 -22 540 -11 566
48 1081 243 1525 576 94 71 222 179 269 226 37 38 176 186 201 215 82 92 240
315 291 409 10 19 22 37 25 40 12 11 155 310 165 345 1 6 16 44 32 85 81 206
144 481 169 741 17 180 5 565 -22 694 -2 11 -7 40 -10 66 -5 36 -37 183 -59
270 -15 58 -70 221 -101 300 -143 362 -360 692 -640 975 -242 244 -472 412
-768 561 -141 71 -415 177 -512 197 -5 2 -29 8 -52 14 -68 20 -221 50 -338 68
-99 14 -594 31 -606 20z m329 -322 c76 -13 199 -81 265 -147 63 -64 127 -174
143 -247 4 -19 9 -42 11 -50 6 -27 5 -144 -1 -178 -37 -194 -174 -354 -359
-420 -94 -34 -240 -37 -332 -7 -184 59 -331 215 -374 396 -54 231 60 487 269
598 117 62 237 80 378 55z m-1457 -599 c211 -42 392 -229 425 -437 34 -217
-60 -429 -245 -552 -149 -100 -386 -110 -541 -23 -107 60 -185 140 -234 239
-44 91 -55 141 -52 256 2 92 6 117 30 177 70 170 192 281 365 331 74 21 175
25 252 9z m2897 1 c93 -18 198 -74 268 -143 53 -54 124 -157 124 -183 0 -9 4
-20 9 -25 16 -18 31 -104 31 -177 -1 -318 -249 -557 -564 -544 -144 6 -257 57
-362 162 -66 65 -120 164 -143 258 -15 63 -12 205 6 265 60 201 228 354 428
390 44 8 151 6 203 -3z m-3488 -1450 c19 -4 72 -25 117 -47 185 -89 304 -277
304 -478 0 -155 -53 -284 -160 -390 -213 -212 -547 -211 -761 1 -107 106 -156
221 -159 379 -4 219 122 411 332 504 88 39 219 51 327 31z m4144 -16 c165 -55
288 -174 348 -336 34 -91 35 -256 4 -346 -34 -97 -71 -154 -141 -224 -123
-119 -301 -175 -466 -144 -349 65 -544 430 -404 755 107 247 405 380 659 295z
m-3543 -1435 c194 -55 335 -183 394 -358 85 -253 -31 -534 -271 -655 -211
-107 -462 -65 -629 105 -111 113 -156 233 -151 403 5 132 28 200 106 300 110
144 275 221 456 215 40 -2 82 -6 95 -10z m2914 -3 c250 -77 404 -276 406 -525
2 -172 -82 -336 -226 -444 -95 -70 -188 -98 -330 -96 -200 2 -381 117 -468
296 -68 140 -77 273 -30 417 58 179 233 329 419 359 58 10 187 5 229 -7z
m-1465 -598 c19 -3 72 -23 117 -45 186 -89 306 -281 305 -489 -1 -131 -42
-241 -131 -348 -199 -239 -574 -252 -796 -27 -150 152 -197 378 -120 574 72
184 241 317 440 344 33 5 131 0 185 -9z"/>
<path d="M4585 670 c-105 -17 -132 -152 -42 -205 31 -18 79 -19 1232 -20 660
0 1206 1 1213 3 9 3 12 35 12 116 l0 111 -1192 0 c-656 0 -1207 -2 -1223 -5z"/>
</g>
</svg>
